<?xml version="1.0" encoding="UTF-8"?>
<svg id="Capa_1" xmlns="http://www.w3.org/2000/svg" viewBox="0 0 100 100">
  <defs>
    <style>
      .cls-1 {
        fill: #adc7e6;
      }
    </style>
  </defs>
  <path class="cls-1" d="M97.03,49.26c-.45-.21-.97-.27-1.47-.38-2.54-.55-5.08-1.1-7.65-1.65-.15-.57-.3-1.05-.41-1.53-.66-3.04-1.28-6.09-1.98-9.13-.18-.79-.45-1.62-.89-2.29-2.23-3.4-4.5-6.78-6.81-10.12-.53-.77-1.24-1.46-1.99-2.04-1.91-1.48-3.87-2.9-5.84-4.29-3.1-2.18-6.4-3.89-10.21-4.44-1.32-.19-2.62-.51-3.92-.8-1.04-.23-2.07-.48-3.09-.72-.18-.85-.33-1.53-.47-2.21-.5-2.36-.99-4.73-1.54-7.08-.08-.34-.49-.61-.75-.92-.29.29-.63.55-.87.88-.14.19-.13.48-.18.73-.49,2.43-1.05,4.85-1.43,7.3-.17,1.09-.64,1.49-1.65,1.69-3.05.61-6.09,1.3-9.13,1.99-.73.17-1.52.36-2.14.77-3.66,2.42-7.28,4.9-10.88,7.39-.51.35-.95.86-1.3,1.38-2.4,3.52-4.79,7.04-7.13,10.6-.41.62-.67,1.37-.83,2.1-.64,2.79-1.22,5.59-1.81,8.38-.17.79-.33,1.58-.49,2.34-2.18.47-4.17.88-6.15,1.32-1.05.23-2.11.47-3.15.77-.24.07-.53.42-.54.65,0,.23.26.59.49.69.52.22,1.1.32,1.65.44,2.53.56,5.06,1.12,7.55,1.67.76,3.39,1.52,6.6,2.19,9.83.58,2.8,2.3,5.04,3.73,7.56,1.31,1.48,2.83,2.82,3.8,4.56.12.21.15.42.12.61,1.54,2.33,3.94,3.89,6.21,5.49.25.17.44.35.59.53.57.35,1.11.74,1.62,1.17.39.16.61.22.79.35,2.94,2.15,6.3,3.22,9.83,3.86,1.69.3,3.35.74,5.05.99.99.15,1.39.58,1.56,1.56.42,2.44.95,4.86,1.44,7.3.08.37.09.79.26,1.1.16.29.5.66.77.67.26.01.64-.34.78-.62.2-.38.23-.85.31-1.29.31-1.62.59-3.25.92-4.87.23-1.12.21-2.57.9-3.23.76-.71,2.22-.68,3.38-.94,4.46-.99,8.98-1.79,12.8-4.6,3.38-2.48,7.04-4.62,9.58-8.08,1.17-1.59,2.29-3.21,3.43-4.82,2.13-2.98,3.7-6.19,4.31-9.86.4-2.43,1.02-4.83,1.55-7.27.83-.2,1.56-.38,2.3-.54,2.23-.5,4.47-.97,6.69-1.51.29-.07.69-.44.71-.7.02-.24-.35-.62-.64-.75M46.83,13.65c-.33,1.67-.6,3.07-.86,4.37-2.85.71-5.49,1.37-8.32,2.08-.53-1.23-1.06-2.49-1.69-3.95,3.53-1.35,7.02-2.01,10.87-2.5M25.14,39.29c4.71.75,8.05,1.96,9.11,3.1-1.13.62-2.15.86-3.34.15-1.89-1.13-3.85-2.17-5.77-3.25M30.23,43.13l-.02.41c-3.52.72-7.03,1.44-10.56,2.16-.23-1.7.57-5.23,1.7-7.55,2.96,1.66,5.92,3.32,8.87,4.98M21.64,37.01c.81-1.37,1.44-2.53,2.17-3.63.79-1.21,1.67-2.37,2.75-3.89,2.2,3.68,4.21,7.03,6.22,10.38-.07.11-.14.23-.22.34-3.6-.93-7.12-2.18-10.92-3.19M33.83,38.63c-1.61-2.65-3.23-5.3-4.83-7.95-.28-.46-.5-.95-.54-1.03,3.74,3.62,7.75,7.49,11.9,11.5-1.28.29-2.43.54-3.58.81-.68.16-1.07-.18-1.39-.72-.51-.87-1.04-1.74-1.57-2.6M29.31,28.83c.16-.19.32-.37.48-.56,1.18.7,2.38,1.38,3.55,2.1,2.59,1.6,5.14,3.25,7.75,4.82.9.54,1.22,1.19.92,2.2-.27.9-.45,1.82-.67,2.74-.17.12-.34.25-.51.37-3.84-3.89-7.67-7.78-11.51-11.66M30.09,26.62c1.04-1.63,4.26-3.87,6.98-4.87,1.07,3.61,2.14,7.21,3.2,10.81-.1.08-.2.16-.3.24-3.29-2.06-6.59-4.12-9.89-6.18M41.42,33.22c-.85-2.69-1.65-5.39-2.47-8.09.12-.05.23-.11.35-.16.38.62.77,1.23,1.12,1.87.65,1.16,1.2,2.37,1.93,3.47.81,1.23.94,2.42.26,3.81-.65.07-1.02-.37-1.19-.9M38.21,21.31c1.45-.95,4.96-1.94,7.55-2.11-.76,3.71-1.48,7.23-2.2,10.76-.12.04-.24.08-.36.12-1.66-2.93-3.33-5.85-4.99-8.77M34.85,16.54c1,1.3,1.42,2.63,1.69,4.02-2.57,1.74-5.08,3.43-7.79,5.26-1.17-.72-2.35-1.44-3.75-2.3,2.95-2.97,6.49-4.77,9.84-6.99M23.78,24.7c.81,1.47,1.45,2.63,2.16,3.91-1.72,2.62-3.44,5.26-5.24,8-1.29-.5-2.57-1-4.03-1.57,2.15-3.66,4.21-7.06,7.1-10.34M16.32,35.85c1.5.64,2.71,1.16,4.13,1.77-.27.86-.54,1.61-.75,2.39-.43,1.66-.85,3.32-1.22,4.99-.16.72-.46,1.12-1.21,1.23-1.06.16-2.1.39-3.46.65.46-3.83,1.23-7.35,2.51-11.02M11.48,48.86c9.51-1.99,19.03-3.95,28.54-5.98,1.07-.23,1.77-.08,2.52.71,1.79,1.88,3.65,3.68,5.49,5.51-.07.12-.14.25-.21.37H10.69c-.02-.07-.05-.15-.07-.22.29-.13.56-.33.87-.39M10.36,50.5h37.58c-2.07,2.23-3.98,4.34-5.99,6.37-.3.3-1.06.35-1.55.25-8.38-1.76-16.76-3.56-25.14-5.34-1.65-.35-3.31-.66-4.92-1.28M21.21,61.67c-.91-2.27-1.42-4.64-1.89-7.44,3.77.78,7.16,1.48,10.63,2.2-.83.99-6.77,4.55-8.74,5.25M30.13,57.72c1.23-.81,2.42-1,4.19-.03-3,1.63-6.06,2.11-9.03,3.03.3-.24.57-.51.89-.7,1.31-.78,2.68-1.46,3.95-2.3M33.02,59.35c-2.15,3.96-4.07,7.52-6.51,11-1.96-2.24-3.25-4.71-4.84-7.35,3.73-1.2,7.3-2.35,11.35-3.65M35.84,57.81c1.53.26,2.94.49,4.75.8-4.17,4.39-8.21,8.43-12.22,12.5-.13-.09-.27-.18-.4-.27,2.6-4.31,5.21-8.63,7.86-13.03M41.46,59.49c.21,1.33.37,2.45.57,3.55.14.78-.3,1.15-.87,1.51-3.97,2.49-7.92,5-11.99,7.57.61-1.37,10.08-11.1,12.29-12.63M39.92,67.15c.1.1.21.19.32.29-1.04,3.57-2.07,7.13-3.21,11.03-2.56-1.67-4.86-3.17-7.46-4.86,3.58-2.43,6.89-4.55,10.35-6.46M42.44,69.42c-1.14,1.87-2.13,3.84-3.3,5.97.01-2.2,2.12-8.68,3.26-9.89.63,1.46.83,2.62.04,3.92M43.05,69.92c.17.02.33.03.5.05.69,3.5,1.38,7,2.07,10.53-2,.13-4.85-.6-7.24-1.85,1.43-2.98,3.12-5.82,4.67-8.73M13.81,53.1c1.39.27,2.57.45,3.71.76.34.09.75.52.85.86.67,2.44,1.26,4.9,1.94,7.61-1.28.62-2.47,1.19-3.87,1.86-1.43-3.58-2.23-7.14-2.62-11.09M16.86,65c1.4-.57,2.65-1.08,3.94-1.61,1.72,2.7,3.35,5.25,5.1,8-.65,1.15-1.31,2.29-2.11,3.71-2.87-3.04-4.9-6.39-6.92-10.1M25.06,76.41c1.34-.86,2.49-1.6,3.6-2.3,2.69,1.76,5.27,3.45,8.08,5.3-.46,1.19-.97,2.5-1.55,3.99-3.82-2.05-7.07-4.16-10.13-6.98M36.15,83.73c.56-1.45,1.04-2.72,1.52-3.96,2.86.75,5.48,1.44,8.29,2.17.24,1.23.5,2.57.82,4.27-3.7-.56-7.1-1.05-10.64-2.48M49.45,90.43c-.26-.63-.47-.96-.54-1.32-1.96-9.78-3.89-19.56-5.89-29.32-.2-.99-.12-1.66.63-2.36,1.67-1.57,3.25-3.22,4.88-4.83.2-.2.47-.33.93-.64v38.47ZM49.19,48.19c-1.3-1.32-2.55-2.56-3.77-3.83-.88-.91-2.12-1.73-2.48-2.82-.32-1,.32-2.32.55-3.5,1.81-9.16,3.62-18.33,5.43-27.49.05-.24.15-.47.23-.7.66,2.94.53,36.79.04,38.34M88.97,49.01c.05.01.09.09.14.13-1.26.48-33.36.71-37.23.23.3-.42.45-.69.66-.9,1.7-1.72,3.43-3.4,5.12-5.13.55-.57,1.1-.73,1.87-.57,9.82,2.1,19.64,4.17,29.45,6.25M78.75,38.3c.95,2.31,1.55,4.7,1.91,7.46-3.75-.78-7.25-1.51-10.82-2.25.88-1.05,6.52-4.34,8.91-5.21M68.78,42.7c-1,.57-1.95.08-3.11-.18.27-.39.41-.83.67-.91,2.79-.93,5.6-1.81,8.4-2.7.04.11.09.22.13.33-2.03,1.16-4.06,2.33-6.1,3.47M67.04,40.37c2.06-3.87,4.06-7.26,6.44-10.87,1.09,1.56,2.02,2.84,2.88,4.16.65,1,1.22,2.06,1.95,3.31-3.73,1.13-7.28,2.19-11.27,3.4M64.06,42.03c-1.47-.29-2.82-.56-4.53-.9,3.98-4.28,7.99-8.15,11.92-12.11.11.11.21.21.32.32-2.56,4.21-5.11,8.41-7.71,12.69M58.53,39.95c-.24-1.14-.52-2.48-.83-4,4.2-2.64,8.34-5.36,12.88-7.93-4.15,4.11-8.07,7.99-12.05,11.94M60.01,32.8c-.12-.07-.23-.13-.35-.2,1.07-3.58,2.14-7.16,3.29-11.04,2.68,1.4,5,2.77,7.18,4.84-3.51,2.22-6.82,4.3-10.12,6.39M57.5,30.47c1.06-1.63,1.94-3.37,2.9-5.06l.4.17c-.6,2.61-1.46,5.16-2.31,7.7-.12.36-.55.61-.93,1.01-.76-1.38-.9-2.53-.06-3.82M56.84,29.99c-.13,0-.26-.02-.39-.02-.71-3.51-1.43-7.01-2.18-10.7,2.6.17,5.98,1.07,7.53,2.01-1.65,2.9-3.3,5.81-4.95,8.71M86.3,46.84c-1.46-.26-2.68-.43-3.87-.71-.3-.07-.67-.43-.75-.73-.69-2.55-1.32-5.11-2-7.8,1.26-.56,2.46-1.09,3.85-1.71,1.48,3.47,2.03,7.05,2.77,10.95M76.21,24.71c2.79,3.31,5.03,6.58,7.02,10.32-1.43.56-2.69,1.06-3.96,1.56-1.78-2.72-3.48-5.31-5.26-8.02.67-1.18,1.36-2.38,2.2-3.86M74.97,23.5c-1.35.84-2.57,1.59-3.76,2.33-2.66-1.79-5.21-3.51-7.95-5.36.5-1.25,1.01-2.5,1.61-4,3.62,2.16,7.01,4.18,10.09,7.03M63.96,16.13c-.56,1.43-1.06,2.69-1.56,3.96-2.67-.64-5.19-1.21-7.68-1.89-.37-.1-.75-.65-.87-1.06-.3-1.03-.46-2.1-.73-3.43,3.79.22,7.24,1.17,10.84,2.41M50.48,9.59l.25-.07c.15.61.33,1.21.45,1.82,1.92,9.58,3.82,19.16,5.79,28.73.22,1.06.1,1.79-.7,2.52-1.92,1.75-3.79,3.55-5.8,5.45V9.59ZM51.17,88.54c-.11.55-.26,1.1-.42,1.75-.41-1.43-.55-35.27-.14-38.53,2.19,2.18,4.15,4.15,6.14,6.09.56.55.38,1.13.25,1.76-1.2,5.84-2.39,11.69-3.57,17.53-.76,3.79-1.5,7.59-2.26,11.39M69.83,57.68c1.63,1.05,3.35,1.95,5.29,3.06-3.01-.3-8.2-2.14-9.11-3.23,1.41-.8,2.58-.63,3.82.17M69.6,56.64c3.83-1.12,7.33-1.62,11.29-2.46-.7,2.73-1.29,5.02-1.97,7.66-3.15-1.76-6.04-3.37-9.32-5.2M78.42,62.93c-1.52,2.66-2.94,5.09-4.99,7.46-2.36-3.59-4.46-6.99-6.36-10.93,3.93,1.2,7.52,2.3,11.35,3.47M66.17,61.2c1.72,2.81,3.39,5.66,5.08,8.5.18.31.33.64.35,1.08-4.21-3.77-8.03-7.9-12.02-11.86.08-.16.15-.33.23-.49,1.38-.16,2.95-.8,4.07-.34,1.02.42,1.61,1.99,2.29,3.12M70.34,71.64c-4.45-2.44-8.3-5.15-12.51-7.63.23-1.58.42-2.94.62-4.33,1.35.56,10.67,9.85,11.88,11.96M70.52,73.57c-2.62,1.73-4.93,3.25-7.53,4.97-1.14-3.93-2.18-7.54-3.35-11.59,3.89,2.08,7.17,4.28,10.88,6.61M58.61,66.79c.86,2.72,1.66,5.45,2.24,8.32-.26-.35-.55-.69-.76-1.07-.8-1.45-1.5-2.95-2.37-4.35-.82-1.31-.99-2.56-.03-4.3.42.62.78.97.92,1.4M61.68,78.66c-2.34,1.24-4.68,1.73-7.39,2.1.76-3.8,1.47-7.36,2.18-10.91.12-.01.23-.03.35-.04,1.6,2.91,3.19,5.81,4.87,8.85M53.48,86.24c-.24-1.6.32-2.99.63-4.29,2.91-.76,5.47-1.44,8.26-2.17.48,1.28.96,2.55,1.49,3.93-3.38,1.46-6.8,2.02-10.37,2.53M65.05,83.28c-1.01-1.12-1.29-2.48-1.76-3.85,2.75-1.82,5.33-3.54,8.06-5.35,1.09.68,2.25,1.4,3.58,2.23-2.98,2.98-6.31,5.07-9.89,6.97M76.28,75.11c-.84-1.4-1.53-2.57-2.22-3.71,1.73-2.62,3.39-5.15,5.24-7.95,1.24.48,2.45.94,3.87,1.49-1.94,3.73-4.13,6.98-6.89,10.18M83.64,64.13c-1.37-.63-2.6-1.19-3.9-1.78.72-2.83,1.41-5.52,2.14-8.38,1.29-.27,2.64-.54,4.29-.88-.37,3.95-1.28,7.4-2.53,11.05M77.01,53.43c-5.77,1.23-11.54,2.44-17.31,3.69-.72.16-1.31.24-1.91-.36-1.96-1.97-3.98-3.9-6.04-5.92,1.42-.54,32.46-.74,37.9-.12-4.21.9-8.43,1.81-12.64,2.7"/>
</svg>